<?xml version="1.0" encoding="UTF-8"?>
<svg xmlns="http://www.w3.org/2000/svg" xmlns:xlink="http://www.w3.org/1999/xlink" width="375pt" height="374.999991pt" viewBox="0 0 375 374.999991" version="1.2">
<defs>
<clipPath id="clip1">
  <path d="M 0 14.019531 L 375 14.019531 L 375 361 L 0 361 Z M 0 14.019531 "/>
</clipPath>
</defs>
<g id="surface1">
<path style=" stroke:none;fill-rule:nonzero;fill:rgb(100%,100%,100%);fill-opacity:1;" d="M 109.484375 167.644531 L 109.484375 153.695312 L 99.691406 143.894531 L 109.167969 134.375 L 99.691406 124.886719 L 109.167969 115.609375 L 99.691406 106.089844 L 109.167969 96.605469 L 91.222656 78.679688 L 72.964844 96.777344 L 72.964844 167.191406 C 72.277344 167.523438 71.601562 167.871094 70.9375 168.242188 C 70.269531 168.609375 69.613281 169 68.96875 169.40625 C 68.324219 169.8125 67.691406 170.234375 67.070312 170.675781 C 66.449219 171.117188 65.839844 171.574219 65.242188 172.050781 C 64.648438 172.527344 64.066406 173.019531 63.496094 173.527344 C 62.929688 174.035156 62.375 174.558594 61.835938 175.097656 C 61.296875 175.636719 60.773438 176.191406 60.265625 176.757812 C 59.757812 177.324219 59.265625 177.90625 58.789062 178.503906 C 58.3125 179.097656 57.855469 179.707031 57.414062 180.328125 C 56.96875 180.949219 56.546875 181.582031 56.140625 182.230469 C 55.734375 182.875 55.34375 183.53125 54.976562 184.195312 C 54.605469 184.863281 54.253906 185.539062 53.921875 186.226562 C 53.589844 186.914062 53.277344 187.609375 52.984375 188.3125 C 52.691406 189.015625 52.417969 189.726562 52.164062 190.445312 C 51.910156 191.164062 51.675781 191.890625 51.460938 192.621094 C 51.25 193.355469 51.054688 194.09375 50.882812 194.835938 C 50.710938 195.578125 50.5625 196.324219 50.429688 197.078125 C 50.300781 197.828125 50.191406 198.582031 50.101562 199.339844 C 50.015625 200.097656 49.945312 200.855469 49.902344 201.617188 C 49.855469 202.378906 49.832031 203.140625 49.828125 203.902344 C 49.824219 204.667969 49.839844 205.429688 49.878906 206.191406 C 49.917969 206.953125 49.980469 207.710938 50.0625 208.46875 C 50.144531 209.226562 50.246094 209.984375 50.367188 210.738281 C 50.492188 211.488281 50.636719 212.238281 50.800781 212.980469 C 50.96875 213.726562 51.152344 214.464844 51.359375 215.199219 C 51.566406 215.933594 51.792969 216.660156 52.039062 217.382812 C 52.289062 218.105469 52.554688 218.816406 52.84375 219.523438 C 53.128906 220.230469 53.433594 220.929688 53.761719 221.617188 C 54.085938 222.308594 54.433594 222.988281 54.796875 223.65625 C 55.160156 224.328125 55.542969 224.988281 55.941406 225.636719 C 56.34375 226.285156 56.761719 226.921875 57.199219 227.546875 C 57.632812 228.171875 58.085938 228.785156 58.558594 229.382812 C 59.027344 229.984375 59.515625 230.570312 60.019531 231.144531 C 60.519531 231.714844 61.039062 232.273438 61.574219 232.820312 C 62.109375 233.363281 62.65625 233.890625 63.222656 234.402344 C 63.785156 234.917969 64.363281 235.414062 64.953125 235.894531 C 65.546875 236.375 66.148438 236.839844 66.765625 237.285156 C 67.382812 237.734375 68.011719 238.164062 68.65625 238.574219 C 69.296875 238.988281 69.949219 239.382812 70.613281 239.757812 C 71.273438 240.132812 71.949219 240.488281 72.632812 240.828125 C 73.3125 241.164062 74.007812 241.484375 74.707031 241.78125 C 75.40625 242.082031 76.117188 242.359375 76.832031 242.621094 C 77.550781 242.878906 78.273438 243.121094 79.003906 243.339844 C 79.734375 243.558594 80.46875 243.757812 81.207031 243.933594 C 81.949219 244.113281 82.695312 244.269531 83.445312 244.40625 C 84.195312 244.542969 84.949219 244.65625 85.703125 244.753906 C 86.460938 244.847656 87.21875 244.917969 87.976562 244.972656 C 88.738281 245.023438 89.5 245.054688 90.261719 245.0625 C 91.023438 245.074219 91.785156 245.0625 92.546875 245.027344 C 93.308594 244.996094 94.066406 244.941406 94.824219 244.867188 C 95.582031 244.789062 96.339844 244.695312 97.09375 244.574219 C 97.84375 244.457031 98.59375 244.320312 99.339844 244.160156 C 100.085938 244 100.824219 243.820312 101.558594 243.617188 C 102.292969 243.417969 103.023438 243.195312 103.746094 242.953125 C 104.46875 242.710938 105.183594 242.449219 105.890625 242.167969 C 106.601562 241.886719 107.300781 241.585938 107.992188 241.265625 C 108.683594 240.945312 109.363281 240.605469 110.035156 240.246094 C 110.710938 239.886719 111.371094 239.511719 112.023438 239.113281 C 112.671875 238.71875 113.3125 238.304688 113.941406 237.871094 C 114.570312 237.441406 115.183594 236.992188 115.789062 236.527344 C 116.390625 236.058594 116.980469 235.578125 117.558594 235.078125 C 118.132812 234.578125 118.695312 234.066406 119.242188 233.535156 C 119.789062 233.003906 120.324219 232.460938 120.839844 231.898438 C 121.355469 231.339844 121.859375 230.765625 122.34375 230.175781 C 122.828125 229.589844 123.296875 228.988281 123.75 228.371094 C 124.199219 227.757812 124.632812 227.132812 125.050781 226.492188 C 125.46875 225.855469 125.867188 225.207031 126.246094 224.542969 C 126.625 223.882812 126.988281 223.210938 127.332031 222.53125 C 127.675781 221.851562 127.996094 221.160156 128.300781 220.460938 C 128.605469 219.761719 128.890625 219.054688 129.15625 218.339844 C 129.421875 217.625 129.667969 216.902344 129.890625 216.175781 C 130.117188 215.445312 130.320312 214.710938 130.503906 213.972656 C 130.6875 213.230469 130.851562 212.488281 130.992188 211.738281 C 131.136719 210.988281 131.257812 210.234375 131.355469 209.480469 C 131.457031 208.722656 131.535156 207.964844 131.59375 207.203125 C 131.652344 206.445312 131.6875 205.683594 131.703125 204.921875 C 131.71875 204.15625 131.714844 203.394531 131.6875 202.632812 C 131.660156 201.871094 131.609375 201.109375 131.542969 200.351562 C 131.472656 199.589844 131.382812 198.835938 131.269531 198.082031 C 131.15625 197.324219 131.023438 196.574219 130.871094 195.828125 C 130.71875 195.082031 130.542969 194.339844 130.347656 193.601562 C 130.152344 192.863281 129.9375 192.132812 129.703125 191.410156 C 129.464844 190.683594 129.210938 189.964844 128.933594 189.253906 C 128.660156 188.542969 128.363281 187.839844 128.046875 187.144531 C 127.734375 186.453125 127.398438 185.765625 127.046875 185.089844 C 126.691406 184.414062 126.320312 183.75 125.929688 183.09375 C 125.539062 182.441406 125.132812 181.796875 124.703125 181.164062 C 124.277344 180.53125 123.835938 179.914062 123.375 179.304688 C 122.914062 178.699219 122.4375 178.105469 121.941406 177.523438 C 121.449219 176.941406 120.9375 176.375 120.414062 175.824219 C 119.886719 175.273438 119.347656 174.734375 118.789062 174.214844 C 118.234375 173.691406 117.664062 173.183594 117.082031 172.695312 C 116.496094 172.203125 115.902344 171.730469 115.289062 171.273438 C 114.679688 170.816406 114.058594 170.378906 113.421875 169.957031 C 112.789062 169.535156 112.140625 169.128906 111.484375 168.746094 C 110.828125 168.359375 110.160156 167.992188 109.484375 167.644531 Z M 90.769531 232.613281 C 89.980469 232.613281 89.199219 232.535156 88.425781 232.382812 C 87.652344 232.230469 86.898438 232 86.171875 231.699219 C 85.441406 231.394531 84.75 231.023438 84.09375 230.585938 C 83.4375 230.148438 82.828125 229.648438 82.269531 229.089844 C 81.710938 228.53125 81.214844 227.921875 80.773438 227.265625 C 80.335938 226.609375 79.964844 225.917969 79.664062 225.1875 C 79.363281 224.457031 79.132812 223.703125 78.980469 222.929688 C 78.828125 222.15625 78.75 221.371094 78.75 220.582031 C 78.75 219.792969 78.828125 219.011719 78.980469 218.234375 C 79.132812 217.460938 79.363281 216.707031 79.664062 215.976562 C 79.964844 215.25 80.335938 214.554688 80.773438 213.898438 C 81.214844 213.242188 81.710938 212.632812 82.269531 212.074219 C 82.828125 211.515625 83.4375 211.015625 84.09375 210.578125 C 84.75 210.140625 85.441406 209.769531 86.171875 209.464844 C 86.898438 209.164062 87.652344 208.9375 88.425781 208.78125 C 89.199219 208.628906 89.980469 208.550781 90.769531 208.550781 C 91.558594 208.550781 92.34375 208.628906 93.117188 208.78125 C 93.890625 208.9375 94.640625 209.164062 95.371094 209.464844 C 96.101562 209.769531 96.792969 210.140625 97.449219 210.578125 C 98.105469 211.015625 98.714844 211.515625 99.269531 212.074219 C 99.828125 212.632812 100.328125 213.242188 100.765625 213.898438 C 101.203125 214.554688 101.574219 215.25 101.878906 215.976562 C 102.179688 216.707031 102.40625 217.460938 102.5625 218.234375 C 102.714844 219.011719 102.792969 219.792969 102.792969 220.582031 C 102.792969 221.371094 102.714844 222.15625 102.5625 222.929688 C 102.40625 223.703125 102.179688 224.457031 101.878906 225.1875 C 101.574219 225.917969 101.203125 226.609375 100.765625 227.265625 C 100.328125 227.921875 99.828125 228.53125 99.269531 229.089844 C 98.714844 229.648438 98.105469 230.148438 97.449219 230.585938 C 96.792969 231.023438 96.101562 231.394531 95.371094 231.699219 C 94.640625 232 93.890625 232.230469 93.117188 232.382812 C 92.34375 232.535156 91.558594 232.613281 90.769531 232.613281 Z M 90.769531 232.613281 "/>
<g clip-path="url(#clip1)" clip-rule="nonzero">
<path style=" stroke:none;fill-rule:nonzero;fill:rgb(100%,100%,100%);fill-opacity:1;" d="M 72.546875 253.886719 L 72.546875 271.324219 L 0 271.324219 L 0 295.039062 L 96.730469 295.039062 L 96.730469 256.675781 C 94.738281 256.898438 92.738281 257.015625 90.734375 257.027344 C 84.488281 257.058594 78.425781 256.011719 72.546875 253.886719 Z M 298.550781 271.324219 L 298.550781 38.886719 C 298.542969 38.089844 298.5 37.296875 298.417969 36.507812 C 298.332031 35.714844 298.210938 34.929688 298.050781 34.148438 C 297.890625 33.371094 297.695312 32.601562 297.460938 31.839844 C 297.222656 31.078125 296.953125 30.332031 296.644531 29.597656 C 296.335938 28.867188 295.992188 28.148438 295.613281 27.449219 C 295.234375 26.75 294.824219 26.070312 294.378906 25.410156 C 293.933594 24.75 293.460938 24.113281 292.953125 23.5 C 292.445312 22.886719 291.910156 22.300781 291.34375 21.738281 C 290.78125 21.179688 290.191406 20.644531 289.574219 20.144531 C 288.957031 19.640625 288.320312 19.167969 287.65625 18.726562 C 286.992188 18.289062 286.3125 17.878906 285.609375 17.507812 C 284.90625 17.132812 284.1875 16.792969 283.453125 16.492188 C 282.71875 16.1875 281.96875 15.921875 281.207031 15.691406 C 280.445312 15.460938 279.675781 15.269531 278.894531 15.113281 C 278.117188 14.960938 277.332031 14.84375 276.539062 14.765625 C 275.746094 14.6875 274.953125 14.648438 274.160156 14.648438 L 96.449219 14.648438 C 95.65625 14.65625 94.863281 14.699219 94.070312 14.785156 C 93.28125 14.867188 92.496094 14.988281 91.714844 15.148438 C 90.9375 15.308594 90.167969 15.507812 89.410156 15.742188 C 88.648438 15.976562 87.902344 16.25 87.171875 16.558594 C 86.4375 16.867188 85.71875 17.210938 85.019531 17.589844 C 84.320312 17.96875 83.640625 18.378906 82.984375 18.824219 C 82.324219 19.269531 81.6875 19.746094 81.074219 20.253906 C 80.460938 20.761719 79.875 21.296875 79.316406 21.859375 C 78.753906 22.425781 78.222656 23.015625 77.722656 23.632812 C 77.21875 24.25 76.746094 24.890625 76.308594 25.554688 C 75.867188 26.214844 75.460938 26.898438 75.085938 27.601562 C 74.714844 28.304688 74.375 29.023438 74.074219 29.761719 C 73.769531 30.496094 73.503906 31.246094 73.273438 32.007812 C 73.042969 32.769531 72.851562 33.539062 72.699219 34.320312 C 72.542969 35.101562 72.425781 35.886719 72.351562 36.679688 C 72.273438 37.472656 72.234375 38.265625 72.234375 39.0625 L 72.234375 80.074219 L 82.339844 69.960938 C 83.480469 68.832031 84.792969 67.96875 86.277344 67.363281 C 87.761719 66.757812 89.308594 66.460938 90.910156 66.472656 C 92.867188 66.492188 94.714844 66.957031 96.449219 67.867188 L 96.449219 38.886719 L 274.089844 38.886719 L 176.105469 95.835938 C 175.191406 96.371094 174.359375 97.011719 173.613281 97.761719 C 172.867188 98.511719 172.226562 99.347656 171.699219 100.265625 C 171.171875 101.183594 170.769531 102.152344 170.492188 103.175781 C 170.21875 104.199219 170.078125 105.238281 170.078125 106.300781 L 170.078125 348.675781 C 170.078125 349.742188 170.214844 350.789062 170.488281 351.816406 C 170.765625 352.847656 171.167969 353.820312 171.699219 354.742188 C 172.234375 355.664062 172.875 356.503906 173.628906 357.253906 C 174.382812 358.007812 175.222656 358.648438 176.144531 359.179688 C 177.066406 359.710938 178.042969 360.113281 179.070312 360.386719 C 180.101562 360.660156 181.148438 360.792969 182.210938 360.789062 C 183.273438 360.785156 184.320312 360.644531 185.347656 360.363281 C 186.375 360.082031 187.347656 359.675781 188.265625 359.136719 L 284.300781 303.164062 C 285.804688 302.496094 287.222656 301.667969 288.550781 300.6875 L 292.035156 298.5625 C 293.441406 297.644531 294.601562 296.480469 295.519531 295.074219 L 374.652344 295.074219 L 374.652344 271.359375 Z M 210.324219 251.097656 C 209.394531 251.097656 208.472656 251.007812 207.5625 250.824219 C 206.652344 250.644531 205.769531 250.375 204.910156 250.019531 C 204.050781 249.664062 203.234375 249.226562 202.464844 248.710938 C 201.691406 248.195312 200.976562 247.609375 200.320312 246.949219 C 199.664062 246.292969 199.078125 245.578125 198.5625 244.804688 C 198.042969 244.03125 197.609375 243.214844 197.253906 242.355469 C 196.898438 241.496094 196.628906 240.613281 196.449219 239.699219 C 196.265625 238.789062 196.175781 237.867188 196.175781 236.9375 C 196.175781 236.007812 196.265625 235.089844 196.449219 234.175781 C 196.628906 233.265625 196.898438 232.378906 197.253906 231.519531 C 197.609375 230.660156 198.042969 229.84375 198.5625 229.070312 C 199.078125 228.300781 199.664062 227.582031 200.320312 226.925781 C 200.976562 226.269531 201.691406 225.683594 202.464844 225.164062 C 203.234375 224.648438 204.050781 224.214844 204.910156 223.855469 C 205.769531 223.5 206.652344 223.234375 207.5625 223.050781 C 208.472656 222.871094 209.394531 222.78125 210.324219 222.78125 C 211.253906 222.78125 212.171875 222.871094 213.082031 223.050781 C 213.996094 223.234375 214.878906 223.5 215.738281 223.855469 C 216.59375 224.214844 217.410156 224.648438 218.183594 225.164062 C 218.957031 225.683594 219.671875 226.269531 220.328125 226.925781 C 220.984375 227.582031 221.570312 228.300781 222.085938 229.070312 C 222.601562 229.84375 223.039062 230.660156 223.394531 231.519531 C 223.75 232.378906 224.015625 233.265625 224.199219 234.175781 C 224.378906 235.089844 224.46875 236.007812 224.46875 236.9375 C 224.472656 237.867188 224.382812 238.789062 224.203125 239.703125 C 224.023438 240.617188 223.757812 241.503906 223.402344 242.363281 C 223.046875 243.222656 222.613281 244.039062 222.097656 244.8125 C 221.582031 245.585938 220.996094 246.300781 220.335938 246.960938 C 219.679688 247.617188 218.964844 248.207031 218.191406 248.722656 C 217.417969 249.238281 216.601562 249.675781 215.742188 250.027344 C 214.882812 250.382812 213.996094 250.652344 213.085938 250.832031 C 212.171875 251.011719 211.253906 251.101562 210.324219 251.097656 Z M 210.324219 251.097656 "/>
</g>
</g>
</svg>
