<?xml version="1.0" encoding="UTF-8"?>
<svg xmlns="http://www.w3.org/2000/svg" xmlns:xlink="http://www.w3.org/1999/xlink" width="375pt" height="283.499996pt" viewBox="0 0 375 283.499996" version="1.2">
<defs>
<clipPath id="clip1">
  <path d="M 0.332031 0.109375 L 374.667969 0.109375 L 374.667969 281.613281 L 0.332031 281.613281 Z M 0.332031 0.109375 "/>
</clipPath>
</defs>
<g id="surface1">
<g clip-path="url(#clip1)" clip-rule="nonzero">
<path style=" stroke:none;fill-rule:nonzero;fill:rgb(68.238831%,68.238831%,68.629456%);fill-opacity:1;" d="M 359.429688 0.300781 L 14.464844 0.300781 C 5.429688 0.300781 -1.960938 7.691406 -1.960938 16.726562 L -1.960938 271.34375 C -1.960938 280.378906 5.429688 287.769531 14.464844 287.769531 L 359.429688 287.769531 C 368.464844 287.769531 375.855469 280.378906 375.855469 271.34375 L 375.855469 16.726562 C 375.855469 7.691406 368.464844 0.300781 359.429688 0.300781 Z M 343.003906 33.152344 L 343.003906 170.726562 L 315.488281 147.730469 C 309.328125 142.804688 300.703125 142.804688 294.542969 147.730469 L 250.191406 184.691406 L 147.113281 95.164062 C 140.953125 89.828125 132.328125 89.828125 126.167969 94.753906 L 30.894531 171.550781 L 30.894531 33.152344 Z M 30.894531 254.914062 L 30.894531 213.847656 L 136.023438 128.839844 L 239.101562 218.367188 C 245.261719 223.703125 254.296875 223.703125 260.457031 218.777344 L 304.808594 181.816406 L 343.003906 213.847656 L 343.003906 254.914062 Z M 212 89.003906 C 212 72.578125 225.550781 59.027344 242.386719 59.027344 C 259.226562 59.027344 272.777344 72.578125 272.777344 89.003906 C 272.777344 105.433594 259.226562 118.984375 242.386719 118.984375 C 225.550781 118.984375 212 105.433594 212 89.003906 Z M 212 89.003906 "/>
</g>
</g>
</svg>
